<mxfile host="app.diagrams.net" modified="2023-04-02T16:22:28.750Z" agent="Mozilla/5.0 (Windows NT 10.0; Win64; x64) AppleWebKit/537.36 (KHTML, like Gecko) Chrome/111.0.0.0 Safari/537.36 Edg/111.0.1661.62" etag="2OOr-YQTFoPlNTzMuUiO" version="21.1.2" type="device">
  <diagram name="Страница 1" id="NtQa50zzyLdOF3VF23Ie">
    <mxGraphModel dx="792" dy="1138" grid="1" gridSize="10" guides="1" tooltips="1" connect="1" arrows="1" fold="1" page="1" pageScale="1" pageWidth="827" pageHeight="1169" math="0" shadow="0">
      <root>
        <mxCell id="0" />
        <mxCell id="1" parent="0" />
        <mxCell id="UKpJPpjgKWtpEiaELWLY-3" style="edgeStyle=orthogonalEdgeStyle;rounded=0;orthogonalLoop=1;jettySize=auto;html=1;" edge="1" parent="1" source="UKpJPpjgKWtpEiaELWLY-1" target="UKpJPpjgKWtpEiaELWLY-2">
          <mxGeometry relative="1" as="geometry" />
        </mxCell>
        <mxCell id="UKpJPpjgKWtpEiaELWLY-1" value="Начало&lt;br&gt;addTrain" style="ellipse;whiteSpace=wrap;html=1;" vertex="1" parent="1">
          <mxGeometry x="354" y="30" width="120" height="80" as="geometry" />
        </mxCell>
        <mxCell id="UKpJPpjgKWtpEiaELWLY-5" value="TRUE" style="edgeStyle=orthogonalEdgeStyle;rounded=0;orthogonalLoop=1;jettySize=auto;html=1;entryX=0.5;entryY=0;entryDx=0;entryDy=0;" edge="1" parent="1" source="UKpJPpjgKWtpEiaELWLY-2" target="UKpJPpjgKWtpEiaELWLY-4">
          <mxGeometry relative="1" as="geometry">
            <Array as="points">
              <mxPoint x="314" y="170" />
            </Array>
          </mxGeometry>
        </mxCell>
        <mxCell id="UKpJPpjgKWtpEiaELWLY-11" value="FALSE" style="edgeStyle=orthogonalEdgeStyle;rounded=0;orthogonalLoop=1;jettySize=auto;html=1;entryX=0.5;entryY=0;entryDx=0;entryDy=0;" edge="1" parent="1" source="UKpJPpjgKWtpEiaELWLY-2" target="UKpJPpjgKWtpEiaELWLY-10">
          <mxGeometry relative="1" as="geometry">
            <Array as="points">
              <mxPoint x="514" y="170" />
            </Array>
          </mxGeometry>
        </mxCell>
        <mxCell id="UKpJPpjgKWtpEiaELWLY-2" value="!trainList" style="rhombus;whiteSpace=wrap;html=1;" vertex="1" parent="1">
          <mxGeometry x="374" y="130" width="80" height="80" as="geometry" />
        </mxCell>
        <mxCell id="UKpJPpjgKWtpEiaELWLY-7" style="edgeStyle=orthogonalEdgeStyle;rounded=0;orthogonalLoop=1;jettySize=auto;html=1;" edge="1" parent="1" source="UKpJPpjgKWtpEiaELWLY-4" target="UKpJPpjgKWtpEiaELWLY-6">
          <mxGeometry relative="1" as="geometry" />
        </mxCell>
        <mxCell id="UKpJPpjgKWtpEiaELWLY-4" value="&lt;div style=&quot;font-size: 14px; line-height: 19px;&quot;&gt;&lt;span style=&quot;background-color: rgb(255, 255, 255);&quot;&gt;trainList = (struct trainList*)malloc(sizeof(struct trainList))&lt;/span&gt;&lt;/div&gt;" style="rounded=0;whiteSpace=wrap;html=1;" vertex="1" parent="1">
          <mxGeometry x="254" y="200" width="120" height="60" as="geometry" />
        </mxCell>
        <mxCell id="UKpJPpjgKWtpEiaELWLY-9" style="edgeStyle=orthogonalEdgeStyle;rounded=0;orthogonalLoop=1;jettySize=auto;html=1;entryX=0.5;entryY=0;entryDx=0;entryDy=0;" edge="1" parent="1" source="UKpJPpjgKWtpEiaELWLY-6" target="UKpJPpjgKWtpEiaELWLY-8">
          <mxGeometry relative="1" as="geometry" />
        </mxCell>
        <mxCell id="UKpJPpjgKWtpEiaELWLY-6" value="&lt;div style=&quot;font-size: 14px; line-height: 19px;&quot;&gt;&lt;span style=&quot;background-color: rgb(255, 255, 255);&quot;&gt;trainList-&amp;gt;train=setTrain()&lt;/span&gt;&lt;/div&gt;" style="rounded=0;whiteSpace=wrap;html=1;" vertex="1" parent="1">
          <mxGeometry x="234" y="280" width="160" height="60" as="geometry" />
        </mxCell>
        <mxCell id="UKpJPpjgKWtpEiaELWLY-13" style="edgeStyle=orthogonalEdgeStyle;rounded=0;orthogonalLoop=1;jettySize=auto;html=1;entryX=0.5;entryY=0;entryDx=0;entryDy=0;" edge="1" parent="1" source="UKpJPpjgKWtpEiaELWLY-8" target="UKpJPpjgKWtpEiaELWLY-12">
          <mxGeometry relative="1" as="geometry" />
        </mxCell>
        <mxCell id="UKpJPpjgKWtpEiaELWLY-8" value="&lt;div style=&quot;font-size: 14px; line-height: 19px;&quot;&gt;&lt;span style=&quot;background-color: rgb(255, 255, 255);&quot;&gt;trainList-&amp;gt;next=NULL&lt;/span&gt;&lt;/div&gt;" style="rounded=0;whiteSpace=wrap;html=1;" vertex="1" parent="1">
          <mxGeometry x="242" y="360" width="144" height="60" as="geometry" />
        </mxCell>
        <mxCell id="UKpJPpjgKWtpEiaELWLY-14" style="edgeStyle=orthogonalEdgeStyle;rounded=0;orthogonalLoop=1;jettySize=auto;html=1;" edge="1" parent="1" source="UKpJPpjgKWtpEiaELWLY-10">
          <mxGeometry relative="1" as="geometry">
            <mxPoint x="410" y="440" as="targetPoint" />
            <Array as="points">
              <mxPoint x="520" y="440" />
            </Array>
          </mxGeometry>
        </mxCell>
        <mxCell id="UKpJPpjgKWtpEiaELWLY-10" value="&lt;div style=&quot;font-size: 14px; line-height: 19px;&quot;&gt;&lt;span style=&quot;background-color: rgb(255, 255, 255);&quot;&gt;trainList-&amp;gt;next = addTrain(trainList-&amp;gt;next)&lt;/span&gt;&lt;/div&gt;" style="rounded=0;whiteSpace=wrap;html=1;" vertex="1" parent="1">
          <mxGeometry x="454" y="200" width="120" height="60" as="geometry" />
        </mxCell>
        <mxCell id="UKpJPpjgKWtpEiaELWLY-12" value="Конец" style="ellipse;whiteSpace=wrap;html=1;" vertex="1" parent="1">
          <mxGeometry x="354" y="460" width="120" height="80" as="geometry" />
        </mxCell>
      </root>
    </mxGraphModel>
  </diagram>
</mxfile>
